# xmcd CD database file
#
# Track frame offsets:
#	187
#	25930
#	40295
#	57362
#	67712
#	84232
#	102567
#	119790
#	137555
#	152550
#	167357
#	188027
#
# Disc length: 2765 seconds
#
# Revision: 2
# Processed by: cddbd v1.5PL3 Copyright (c) Steve Scherf et al.
# Submitted via: CDex 1.50
#
DISCID=960acb0c
DTITLE=大貫妙子 - Comin’ Soon
DYEAR=1986
DGENRE=Pop
TTITLE0=アリス
TTITLE1=ピーターラビットと私
TTITLE2=ロボット・マーチ
TTITLE3=メトロポリタン美術館
TTITLE4=MOMO
TTITLE5=森のクリスマス
TTITLE6=テディ・ベア
TTITLE7=チェッカーくん
TTITLE8=お天気のいい日
TTITLE9=地下鉄のザジ
TTITLE10=タンタンの冒険
TTITLE11=カミン・スーン
EXTD=YEAR: 1986
EXTT0=
EXTT1=
EXTT2=
EXTT3=
EXTT4=
EXTT5=
EXTT6=
EXTT7=
EXTT8=
EXTT9=
EXTT10=
EXTT11=
PLAYORDER=
